<svg xmlns="http://www.w3.org/2000/svg" width="22.021" height="21.714" viewBox="0 0 22.021 21.714">
  <path id="Alias_user" data-name="Alias user" d="M11.01,9.175a2.753,2.753,0,1,1,2.753-2.753A2.753,2.753,0,0,1,11.01,9.175ZM8.229,13.992a2.921,2.921,0,0,1,5.563,0,.918.918,0,1,0,1.778-.459c-1.2-4.539-7.918-4.537-9.118,0a.917.917,0,1,0,1.777.459Zm2.79,7.722a1.844,1.844,0,0,1-1.228-.467l-3.439-2.9H3.67A3.67,3.67,0,0,1,0,14.681V3.67A3.67,3.67,0,0,1,3.67,0H18.351a3.67,3.67,0,0,1,3.67,3.67v11.01a3.67,3.67,0,0,1-3.67,3.67H15.733L12.2,21.269a1.78,1.78,0,0,1-1.185.445ZM3.67,1.835A1.835,1.835,0,0,0,1.835,3.67v11.01A1.835,1.835,0,0,0,3.67,16.516H6.688a.918.918,0,0,1,.591.216l3.712,3.129,3.828-3.134a.918.918,0,0,1,.584-.21h2.947a1.835,1.835,0,0,0,1.835-1.835V3.67a1.835,1.835,0,0,0-1.835-1.835Z" fill="#7e84a2"/>
</svg>
