<svg xmlns="http://www.w3.org/2000/svg" width="22" height="22" viewBox="0 0 22 22">
  <g id="Icon" transform="translate(8968 -14326)">
    <rect id="Rectangle_10113" data-name="Rectangle 10113" width="22" height="22" transform="translate(-8968 14326)" fill="none"/>
    <path id="lock-alt_3914539" d="M10.935,0A10.935,10.935,0,1,0,21.869,10.935,10.935,10.935,0,0,0,10.935,0Zm0,20.047a9.112,9.112,0,1,1,9.112-9.112A9.112,9.112,0,0,1,10.935,20.047Zm0-13.668a2.727,2.727,0,0,0-.911,5.3v2.9a.911.911,0,1,0,1.822,0v-2.9a2.727,2.727,0,0,0-.911-5.3Zm0,3.645a.911.911,0,1,1,.911-.911A.911.911,0,0,1,10.935,10.023Z" transform="translate(-8968 14326.131)" fill="#7e84a3"/>
  </g>
</svg>
