<svg xmlns="http://www.w3.org/2000/svg" width="22" height="21.999" viewBox="0 0 22 21.999">
  <path id="Communication_Restriction" data-name="Communication Restriction" d="M21.723.282a.917.917,0,0,0-1.3,0L9.251,11.453A13.009,13.009,0,0,1,7.315,8.328L8.376,7a2.842,2.842,0,0,0,.006-3.92S6.685.872,6.658.844A2.823,2.823,0,0,0,2.694.8l-1.053.917c-3.681,4.077-.585,9.821,3.253,14.089L.274,20.423a.917.917,0,0,0,1.3,1.3L21.723,1.577a.917.917,0,0,0,0-1.3ZM1.839,5.725a3.773,3.773,0,0,1,1.05-2.666l1.053-.917a1.008,1.008,0,0,1,1.383-.036S7.013,4.3,7.041,4.324a1,1,0,0,1,0,1.418c-.024.024-1.5,1.867-1.5,1.867a.917.917,0,0,0-.136.917,15.026,15.026,0,0,0,2.535,4.233L6.188,14.514C3.491,11.618,1.839,8.33,1.839,5.725Zm19.321,9.614a2.842,2.842,0,0,1,0,4.008l-.834.961c-3.552,3.233-7.86,1.342-11.893-1.383a.917.917,0,0,1,1.1-1.467c3.216,2.122,6.721,3.98,9.46,1.6l.835-.962a1.025,1.025,0,0,0,.078-1.428s-2.193-1.687-2.22-1.714a1.008,1.008,0,0,0-1.419,0c-.025.025-1.873,1.5-1.873,1.5a.911.911,0,0,1-.884.144,14.139,14.139,0,0,1-1.753-.808.917.917,0,0,1,.854-1.616c.34.183.693.358,1.06.514l1.34-1.066a2.842,2.842,0,0,1,3.921-.005S21.131,15.308,21.159,15.339Z" transform="translate(0.009 -0.01)" fill="#7e84a1"/>
</svg>
