<svg xmlns="http://www.w3.org/2000/svg" width="24" height="24" viewBox="0 0 24 24">
  <g id="Icon" transform="translate(8969 -14269.787)">
    <path id="square-poll-vertical_9795463" d="M10.083,8.25V16.5a.917.917,0,1,1-1.833,0V8.25a.917.917,0,0,1,1.833,0ZM22,4.583V17.417A4.585,4.585,0,0,1,17.417,22H4.583A4.585,4.585,0,0,1,0,17.417V4.583A4.585,4.585,0,0,1,4.583,0H17.417A4.585,4.585,0,0,1,22,4.583Zm-1.833,0a2.758,2.758,0,0,0-2.75-2.75H4.583a2.758,2.758,0,0,0-2.75,2.75V17.417a2.758,2.758,0,0,0,2.75,2.75H17.417a2.758,2.758,0,0,0,2.75-2.75ZM5.5,10.083A.919.919,0,0,0,4.583,11v5.5a.917.917,0,1,0,1.833,0V11A.919.919,0,0,0,5.5,10.083Zm7.333-5.5a.919.919,0,0,0-.917.917v11a.917.917,0,1,0,1.833,0V5.5A.919.919,0,0,0,12.833,4.583Zm3.667,8.25a.919.919,0,0,0-.917.917V16.5a.917.917,0,1,0,1.833,0V13.75A.919.919,0,0,0,16.5,12.833Z" transform="translate(-8968 14271)" fill="#7e84a3"/>
    <rect id="Rectangle_14383" data-name="Rectangle 14383" width="24" height="24" transform="translate(-8969 14269.787)" fill="none"/>
  </g>
</svg>
