<svg xmlns="http://www.w3.org/2000/svg" width="18.177" height="21.813" viewBox="0 0 18.177 21.813">
  <path id="GC_Data" data-name="GC Data" d="M8.362,15.451v1.818a.909.909,0,0,1-1.818,0V15.451a.909.909,0,1,1,1.818,0Zm6.362-2.727a.909.909,0,0,0-.909.909v3.635a.909.909,0,0,0,1.818,0V13.633A.909.909,0,0,0,14.724,12.724ZM11.089,10a.909.909,0,0,0-.909.909v6.362a.909.909,0,0,0,1.818,0V10.906A.909.909,0,0,0,11.089,10Zm9.089-.468v7.739a4.549,4.549,0,0,1-4.544,4.544H6.544A4.549,4.549,0,0,1,2,17.268V4.544A4.549,4.549,0,0,1,6.544,0h4.1a6.324,6.324,0,0,1,4.5,1.863l3.166,3.168a6.318,6.318,0,0,1,1.864,4.5ZM13.861,3.148a4.554,4.554,0,0,0-.955-.732V6.362a.91.91,0,0,0,.909.909H17.76a4.6,4.6,0,0,0-.732-.954L13.862,3.148Zm4.5,6.381c0-.148-.007-.3-.021-.441H13.815a2.73,2.73,0,0,1-2.727-2.727V1.839c-.145-.014-.293-.021-.441-.021h-4.1A2.73,2.73,0,0,0,3.818,4.544V17.268a2.73,2.73,0,0,0,2.727,2.727h9.089a2.73,2.73,0,0,0,2.727-2.727Z" transform="translate(-2)" fill="#7e84a3"/>
</svg>
