<svg xmlns="http://www.w3.org/2000/svg" width="22" height="22.002" viewBox="0 0 22 22.002">
  <path id="Group" d="M22,10.984a3.661,3.661,0,0,0-2.39-3.424l-.035-.083A9.23,9.23,0,0,0,14.722,2.51l-.3-.132a3.649,3.649,0,0,0-6.84,0L7.2,2.55A9.34,9.34,0,0,0,2.4,7.558,3.648,3.648,0,0,0,2.371,14.4l.117.275A9.258,9.258,0,0,0,7.22,19.47l.36.161a3.65,3.65,0,0,0,6.838,0l.336-.149a9.343,9.343,0,0,0,4.866-5.073A3.667,3.667,0,0,0,22,10.984ZM11,1.833A1.833,1.833,0,1,1,9.166,3.667,1.833,1.833,0,0,1,11,1.833ZM3.655,9.153l.075.028.009-.023a1.753,1.753,0,1,1-.084-.005ZM11,20.166a1.833,1.833,0,1,1,1.833-1.833A1.833,1.833,0,0,1,11,20.166Zm3.568-2.645a3.658,3.658,0,0,0-7.138,0,7.418,7.418,0,0,1-2.962-2.964,3.658,3.658,0,0,0,.023-7.131A7.507,7.507,0,0,1,7.43,4.492a3.658,3.658,0,0,0,7.136,0,7.539,7.539,0,0,1,2.941,2.927,3.658,3.658,0,0,0,.014,7.136A7.523,7.523,0,0,1,14.568,17.521Zm3.765-4.7a1.833,1.833,0,1,1,1.833-1.833A1.833,1.833,0,0,1,18.333,12.817Z" transform="translate(0.001 -0.002)" fill="#7e84a3"/>
</svg>
