<svg xmlns="http://www.w3.org/2000/svg" width="22" height="20.167" viewBox="0 0 22 20.167">
  <path id="Health_Configuration" data-name="Health Configuration" d="M17.417,4.667h-2.75V3.75A2.75,2.75,0,0,0,11.917,1H10.083a2.75,2.75,0,0,0-2.75,2.75v.917H4.583A4.589,4.589,0,0,0,0,9.25v7.333a4.589,4.589,0,0,0,4.583,4.583H17.417A4.589,4.589,0,0,0,22,16.583V9.25a4.589,4.589,0,0,0-4.583-4.583ZM9.167,3.75a.917.917,0,0,1,.917-.917h1.833a.917.917,0,0,1,.917.917v.917H9.167Zm11,12.833a2.75,2.75,0,0,1-2.75,2.75H4.583a2.75,2.75,0,0,1-2.75-2.75V9.25A2.75,2.75,0,0,1,4.583,6.5H17.417a2.75,2.75,0,0,1,2.75,2.75Zm-5.5-3.667a.917.917,0,0,1-.917.917H11.917v1.833a.917.917,0,1,1-1.833,0V13.833H8.25A.917.917,0,1,1,8.25,12h1.833V10.167a.917.917,0,1,1,1.833,0V12H13.75A.917.917,0,0,1,14.667,12.917Z" transform="translate(0 -1)" fill="#7e84a1"/>
</svg>
