<svg xmlns="http://www.w3.org/2000/svg" width="22" height="22" viewBox="0 0 22 22">
  <path id="House_bank_master" data-name="House bank master" d="M22,21.081a.917.917,0,0,1-.917.917H.916a.917.917,0,0,1,0-1.833H21.081A.917.917,0,0,1,22,21.081ZM.267,7.838a2.239,2.239,0,0,1,.14-2.352A4.323,4.323,0,0,1,1.936,4.112L8.811.533a4.742,4.742,0,0,1,4.376,0l6.874,3.581A4.323,4.323,0,0,1,21.59,5.489a2.239,2.239,0,0,1,.14,2.352,2.487,2.487,0,0,1-2.214,1.324h-.268V16.5h.917a.917.917,0,1,1,0,1.833H1.833a.917.917,0,1,1,0-1.833H2.75V9.166H2.482A2.487,2.487,0,0,1,.267,7.838ZM4.583,16.5h2.75V9.166H4.583ZM9.166,9.166V16.5h3.666V9.166Zm8.249,0h-2.75V16.5h2.75ZM1.891,6.989a.657.657,0,0,0,.591.344H19.516a.657.657,0,0,0,.591-.344.414.414,0,0,0-.022-.458,2.475,2.475,0,0,0-.87-.792L12.341,2.158a2.911,2.911,0,0,0-2.682,0L2.784,5.739a2.486,2.486,0,0,0-.87.793.414.414,0,0,0-.024.457Z" transform="translate(0.002 0.002)" fill="#7e84a2"/>
</svg>
