<svg id="Icon" xmlns="http://www.w3.org/2000/svg" width="22" height="22" viewBox="0 0 22 22">
  <path id="Path_22449" data-name="Path 22449" d="M23,16a1,1,0,0,0-1,1v2a3,3,0,0,1-3,3H17a1,1,0,0,0,0,2h2a5.006,5.006,0,0,0,5-5V17A1,1,0,0,0,23,16Z" transform="translate(-2 -2)" fill="#175ec4"/>
  <path id="Path_22450" data-name="Path 22450" d="M1,8A1,1,0,0,0,2,7V5A3,3,0,0,1,5,2H7A1,1,0,1,0,7,0H5A5.006,5.006,0,0,0,0,5V7A1,1,0,0,0,1,8Z" fill="#175ec4"/>
  <path id="Path_22451" data-name="Path 22451" d="M7,22H5a3,3,0,0,1-3-3V17a1,1,0,1,0-2,0v2a5.006,5.006,0,0,0,5,5H7a1,1,0,0,0,0-2Z" transform="translate(0 -2)" fill="#175ec4"/>
  <path id="Path_22452" data-name="Path 22452" d="M19,0H17a1,1,0,0,0,0,2h2a3,3,0,0,1,3,3V7a1,1,0,0,0,2,0V5A5.006,5.006,0,0,0,19,0Z" transform="translate(-2)" fill="#175ec4"/>
  <path id="Path_22453" data-name="Path 22453" d="M12,11A4,4,0,1,0,8,7a4,4,0,0,0,4,4Zm0-6a2,2,0,1,1-2,2A2,2,0,0,1,12,5Z" transform="translate(-1)" fill="#175ec4"/>
  <path id="Path_22454" data-name="Path 22454" d="M16.143,20A.937.937,0,0,0,17,19c0-3.312-2.3-6-5.143-6H10.143C7.3,13,5,15.688,5,19a.937.937,0,0,0,.857,1,.937.937,0,0,0,.857-1,3.747,3.747,0,0,1,3.429-4h1.714a3.747,3.747,0,0,1,3.429,4A.937.937,0,0,0,16.143,20Z" transform="translate(0 -1.529)" fill="#175ec4"/>
</svg>
