<svg xmlns="http://www.w3.org/2000/svg" width="22" height="22" viewBox="0 0 22 22">
  <path id="LOB" d="M17.417,3.667H16.408A4.592,4.592,0,0,0,11.917,0H10.083A4.592,4.592,0,0,0,5.592,3.667H4.583A4.589,4.589,0,0,0,0,8.25v9.167A4.589,4.589,0,0,0,4.583,22H17.417A4.589,4.589,0,0,0,22,17.417V8.25a4.589,4.589,0,0,0-4.583-4.583ZM10.083,1.833h1.833A2.75,2.75,0,0,1,14.5,3.667h-7A2.75,2.75,0,0,1,10.083,1.833ZM4.583,5.5H17.417a2.75,2.75,0,0,1,2.75,2.75V11H1.833V8.25A2.75,2.75,0,0,1,4.583,5.5ZM17.417,20.167H4.583a2.75,2.75,0,0,1-2.75-2.75V12.833h8.25v.917a.917.917,0,1,0,1.833,0v-.917h8.25v4.583A2.75,2.75,0,0,1,17.417,20.167Z" fill="#7e84a2"/>
</svg>
