<svg xmlns="http://www.w3.org/2000/svg" width="21.869" height="21.869" viewBox="0 0 21.869 21.869">
  <path id="Marine_Management" data-name="Marine Management" d="M20.958,18.224a.911.911,0,0,0-.911.911c0,.313-.621.911-1.595.911A1.843,1.843,0,0,1,17,19.419a1.76,1.76,0,0,1,.117-.168,11.073,11.073,0,0,0,2.876-5.634,2.734,2.734,0,0,0-1.769-3.062V8.2A3.645,3.645,0,0,0,14.58,4.556V3.645a3.645,3.645,0,1,0-7.29,0v.911A3.645,3.645,0,0,0,3.645,8.2v2.343a2.734,2.734,0,0,0-1.8,3.074,11.106,11.106,0,0,0,2.9,5.634,1.8,1.8,0,0,1,.121.172,1.827,1.827,0,0,1-1.456.623c-.992,0-1.595-.632-1.595-.911a.911.911,0,1,0-1.822,0c0,1.482,1.565,2.734,3.417,2.734a3.838,3.838,0,0,0,2.518-.911,3.914,3.914,0,0,0,5,.015,3.934,3.934,0,0,0,5.012-.015,3.834,3.834,0,0,0,2.5.911c1.855,0,3.421-1.252,3.421-2.734A.911.911,0,0,0,20.958,18.224ZM9.112,3.645a1.822,1.822,0,1,1,3.645,0v.911H9.112ZM7.29,6.379h7.29A1.822,1.822,0,0,1,16.4,8.2v1.75L11.8,8.44a2.757,2.757,0,0,0-1.723,0l-4.608,1.5V8.2A1.822,1.822,0,0,1,7.29,6.379ZM8.429,20.047a1.766,1.766,0,0,1-1.559-.774,4.659,4.659,0,0,0-.773-1.25A9.343,9.343,0,0,1,3.645,13.31a.928.928,0,0,1,.6-1.051l5.775-1.887v8.763C10.023,19.449,9.4,20.047,8.429,20.047Zm5.012,0c-.992,0-1.595-.632-1.595-.911V10.373l5.745,1.885a.93.93,0,0,1,.607,1.052,9.294,9.294,0,0,1-2.426,4.712A4.548,4.548,0,0,0,15,19.279,1.758,1.758,0,0,1,13.44,20.047Z" fill="#7e84a3"/>
</svg>
