<svg xmlns="http://www.w3.org/2000/svg" width="22" height="22" viewBox="0 0 22 22">
  <path id="Masters" d="M18.333,9.167A3.666,3.666,0,0,0,22,5.5V3.667A3.666,3.666,0,0,0,18.333,0H3.667A3.666,3.666,0,0,0,0,3.667V5.5A3.666,3.666,0,0,0,3.667,9.167V13.75A4.585,4.585,0,0,0,8.25,18.333h.917A3.666,3.666,0,0,0,12.833,22h5.5A3.666,3.666,0,0,0,22,18.333V16.5a3.666,3.666,0,0,0-3.667-3.667h-5.5A3.666,3.666,0,0,0,9.167,16.5H8.25A2.758,2.758,0,0,1,5.5,13.75V9.167ZM11,16.5a1.839,1.839,0,0,1,1.833-1.833h5.5A1.839,1.839,0,0,1,20.167,16.5v1.833a1.839,1.839,0,0,1-1.833,1.833h-5.5A1.839,1.839,0,0,1,11,18.333ZM1.833,5.5V3.667A1.839,1.839,0,0,1,3.667,1.833H18.333a1.839,1.839,0,0,1,1.833,1.833V5.5a1.839,1.839,0,0,1-1.833,1.833H3.667A1.839,1.839,0,0,1,1.833,5.5Z" fill="#7e84a3"/>
</svg>
