<svg xmlns="http://www.w3.org/2000/svg" width="22" height="23.091" viewBox="0 0 22 23.091">
  <g id="Icon" transform="translate(-0.494 0.004)">
    <path id="Path_22439" data-name="Path 22439" d="M22.388,15.58l-2.5-9.013A8.964,8.964,0,0,0,2.5,7.021l-1.934,8.7a2.885,2.885,0,0,0,2.816,3.51H6.847a4.809,4.809,0,0,0,9.425,0H19.61a2.885,2.885,0,0,0,2.779-3.655ZM11.56,21.158a2.885,2.885,0,0,1-2.708-1.924h5.417a2.885,2.885,0,0,1-2.708,1.924Zm8.814-4.227a.955.955,0,0,1-.769.38H3.378a.962.962,0,0,1-.939-1.17l1.934-8.7a7.041,7.041,0,0,1,13.657-.358l2.5,9.013a.955.955,0,0,1-.157.84Z" transform="translate(0 0)" fill="#7e84a1"/>
  </g>
</svg>
