<svg xmlns="http://www.w3.org/2000/svg" width="22" height="22" viewBox="0 0 22 22">
  <path id="Icon" d="M13.481,9.815,12.3,11l1.185,1.185a.917.917,0,1,1-1.3,1.3L11,12.3,9.815,13.481a.917.917,0,0,1-1.3-1.3L9.7,11,8.519,9.815a.917.917,0,0,1,1.3-1.3L11,9.7l1.185-1.185a.917.917,0,0,1,1.3,1.3Zm2.37,3.667a.916.916,0,0,0,1.3,0L18.333,12.3l1.185,1.185a.917.917,0,1,0,1.3-1.3L19.63,11l1.185-1.185a.917.917,0,1,0-1.3-1.3L18.333,9.7,17.148,8.519a.917.917,0,1,0-1.3,1.3L17.037,11l-1.185,1.185a.916.916,0,0,0,0,1.3Zm-14.667,0a.916.916,0,0,0,1.3,0L3.667,12.3l1.185,1.185a.917.917,0,0,0,1.3-1.3L4.963,11,6.148,9.815a.917.917,0,0,0-1.3-1.3L3.667,9.7,2.481,8.519a.917.917,0,0,0-1.3,1.3L2.37,11,1.185,12.185a.916.916,0,0,0,0,1.3Zm5.231,6.685H4.583a2.753,2.753,0,0,1-2.75-2.75V15.583a.917.917,0,1,0-1.833,0v1.833A4.589,4.589,0,0,0,4.583,22H6.417a.917.917,0,1,0,0-1.833Zm14.667-5.5a.916.916,0,0,0-.917.917v1.833a2.753,2.753,0,0,1-2.75,2.75H15.583a.917.917,0,1,0,0,1.833h1.833A4.589,4.589,0,0,0,22,17.417V15.583A.916.916,0,0,0,21.083,14.667ZM17.417,0H15.583a.917.917,0,1,0,0,1.833h1.833a2.753,2.753,0,0,1,2.75,2.75V6.417a.917.917,0,1,0,1.833,0V4.583A4.589,4.589,0,0,0,17.417,0Zm-11,0H4.583A4.589,4.589,0,0,0,0,4.583V6.417a.917.917,0,0,0,1.833,0V4.583a2.753,2.753,0,0,1,2.75-2.75H6.417A.917.917,0,0,0,6.417,0Z" fill="#7e84a1"/>
</svg>
