<svg xmlns="http://www.w3.org/2000/svg" width="22" height="19.253" viewBox="0 0 22 19.253">
  <path id="Icon" d="M21.082,13.916h-.611a4.482,4.482,0,0,0-.683.052L13.33,9.125l1.547-1.481a.917.917,0,1,0-1.268-1.325L9.784,9.981a.916.916,0,0,1-1.4-.124.985.985,0,0,1,.154-1.223l4.311-4.06a2.781,2.781,0,0,1,3.093-.454l2.123,1.061a4.607,4.607,0,0,0,2.049.483h.968a.917.917,0,0,0,0-1.833h-.968a2.767,2.767,0,0,1-1.23-.29L16.762,2.481a4.648,4.648,0,0,0-5.171.759l-.566.533-.642-.585A4.621,4.621,0,0,0,5.235,2.48L3.114,3.542a2.774,2.774,0,0,1-1.231.29H.917a.917.917,0,1,0,0,1.833h.968a4.626,4.626,0,0,0,2.05-.483L6.057,4.12a2.851,2.851,0,0,1,3.093.423l.538.49L7.262,7.318a2.823,2.823,0,0,0-.365,3.61,2.981,2.981,0,0,0,2.24,1.154,2.728,2.728,0,0,0,1.929-.791l.922-.883,5.817,4.362c-.028.02-5.681,4.259-5.681,4.259a1.838,1.838,0,0,1-2.264-.01L4.277,14.832a4.609,4.609,0,0,0-2.75-.917H.916a.917.917,0,0,0,0,1.833h.611a2.767,2.767,0,0,1,1.65.55l5.57,4.178A3.669,3.669,0,0,0,11,21.252a3.631,3.631,0,0,0,2.234-.765L18.822,16.3a2.762,2.762,0,0,1,1.649-.55h.611a.917.917,0,1,0,0-1.833Z" transform="translate(0.001 -1.999)" fill="#7e84a1"/>
</svg>
