<svg xmlns="http://www.w3.org/2000/svg" width="18.331" height="22" viewBox="0 0 18.331 22">
  <g id="Permission" transform="translate(-2 0.003)">
    <path id="Path_22009" data-name="Path 22009" d="M15.748,7.332H6.583V6.416A4.583,4.583,0,0,1,15.175,4.2a.917.917,0,0,0,1.6-.89A6.416,6.416,0,0,0,4.75,6.416V7.721A4.583,4.583,0,0,0,2,11.915v5.5A4.588,4.588,0,0,0,6.583,22h9.166a4.588,4.588,0,0,0,4.583-4.583v-5.5A4.588,4.588,0,0,0,15.748,7.332ZM18.5,17.414a2.75,2.75,0,0,1-2.75,2.75H6.583a2.75,2.75,0,0,1-2.75-2.75v-5.5a2.75,2.75,0,0,1,2.75-2.75h9.166a2.75,2.75,0,0,1,2.75,2.75Z" fill="#7e84a3"/>
    <path id="Path_22010" data-name="Path 22010" d="M12,14a1,1,0,0,0-1,1v2a1,1,0,0,0,2,0V15A1,1,0,0,0,12,14Z" transform="translate(-0.834 -1.402)" fill="#7e84a3"/>
  </g>
</svg>
