<svg xmlns="http://www.w3.org/2000/svg" width="21.869" height="21.869" viewBox="0 0 21.869 21.869">
  <path id="Privilege" d="M8.219,15.81a.845.845,0,0,1-.5-.164.831.831,0,0,1-.292-.92L8.21,12.21,6.224,10.6A.831.831,0,0,1,6.761,9.13H9.267l.884-2.378a.835.835,0,0,1,1.567,0L12.6,9.13h2.506a.837.837,0,0,1,.784.547.853.853,0,0,1-.246.929l-1.977,1.613.82,2.488a.827.827,0,0,1-.282.92.836.836,0,0,1-.966.036l-2.3-1.494-2.26,1.513a.84.84,0,0,1-.465.137Zm2.715,6.06A10.935,10.935,0,1,1,21.869,10.935,10.943,10.943,0,0,1,10.935,21.869Zm0-20.047a9.112,9.112,0,1,0,9.112,9.112A9.127,9.127,0,0,0,10.935,1.822Z" fill="#7e84a3"/>
</svg>
