<svg xmlns="http://www.w3.org/2000/svg" width="22" height="22" viewBox="0 0 22 22">
  <path id="Icon" d="M10.083,9.167v.917A.917.917,0,0,1,9.167,11H4.583a.917.917,0,0,1-.917-.917V9.167a.917.917,0,0,1,.917-.917H9.167A.917.917,0,0,1,10.083,9.167ZM22,5.958v9.625a.916.916,0,0,1-1.374.794l-1.989-1.146-1.62,1.108a.916.916,0,0,1-1.034-1.513l2.095-1.434a.913.913,0,0,1,.974-.038L20.167,14V5.958A4.117,4.117,0,0,0,11.98,5.33a4.119,4.119,0,0,1,1.77,3.378v9.167A4.13,4.13,0,0,1,9.625,22h-5.5A4.13,4.13,0,0,1,0,17.875V8.708A4.121,4.121,0,0,1,1.833,5.282v-.7A4.589,4.589,0,0,1,6.417,0h9.625A5.965,5.965,0,0,1,22,5.958ZM11.917,8.708A2.294,2.294,0,0,0,9.625,6.417h-5.5A2.294,2.294,0,0,0,1.833,8.708v9.167a2.294,2.294,0,0,0,2.292,2.292h5.5a2.294,2.294,0,0,0,2.292-2.292ZM10.234,4.645a5.909,5.909,0,0,1,1.5-2.811H6.417a2.753,2.753,0,0,0-2.75,2.75V4.63a3.98,3.98,0,0,1,.458-.047h5.5A4.039,4.039,0,0,1,10.234,4.645ZM9.167,12.833H8.25a.917.917,0,1,0,0,1.833h.917a.917.917,0,0,0,0-1.833Zm0,3.667H8.25a.917.917,0,0,0,0,1.833h.917a.917.917,0,0,0,0-1.833ZM5.5,12.833H4.583a.917.917,0,1,0,0,1.833H5.5a.917.917,0,1,0,0-1.833Zm0,3.667H4.583a.917.917,0,1,0,0,1.833H5.5a.917.917,0,0,0,0-1.833Z" fill="#7e84a1"/>
</svg>
