<svg xmlns="http://www.w3.org/2000/svg" width="18.33" height="21.999" viewBox="0 0 18.33 21.999">
  <g id="Icon" transform="translate(-13897 -18426.15)">
    <g id="Group_34525" data-name="Group 34525" transform="translate(13897 18426.15)">
      <path id="Path_22418" data-name="Path 22418" d="M15.748,7.332H6.583V6.415A4.583,4.583,0,0,1,15.175,4.2a.917.917,0,0,0,1.6-.89A6.416,6.416,0,0,0,4.75,6.415V7.72A4.583,4.583,0,0,0,2,11.914v5.5A4.588,4.588,0,0,0,6.583,22h9.165a4.588,4.588,0,0,0,4.583-4.583v-5.5A4.588,4.588,0,0,0,15.748,7.332ZM18.5,17.414a2.75,2.75,0,0,1-2.75,2.75H6.583a2.75,2.75,0,0,1-2.75-2.75v-5.5a2.75,2.75,0,0,1,2.75-2.75h9.165a2.75,2.75,0,0,1,2.75,2.75Z" transform="translate(-2 0.003)" fill="#7e84a2"/>
    </g>
    <path id="undo_3917284" d="M2.841,4.547H4.367v-.5A.632.632,0,0,1,5.445,3.6L7.3,5.457a.948.948,0,0,1,0,1.34L5.445,8.654a.632.632,0,0,1-1.078-.447v-.5H2.525a1.9,1.9,0,0,0-1.9,1.9A.316.316,0,1,1,0,9.6V7.391A2.846,2.846,0,0,1,2.841,4.547Z" transform="translate(13902.499 18434.111)" fill="#7e84a2"/>
  </g>
</svg>
