<svg xmlns="http://www.w3.org/2000/svg" width="22" height="20.166" viewBox="0 0 22 20.166">
  <path id="Icon" d="M13.023,8.493,12.3,9.22l.727.727a.916.916,0,1,1-1.3,1.3L11,10.516l-.727.727a.916.916,0,0,1-1.3-1.3L9.7,9.22l-.727-.727a.916.916,0,0,1,1.3-1.3L11,7.924l.727-.727a.916.916,0,1,1,1.3,1.3ZM18.96,7.2a.916.916,0,0,0-1.3,0l-.727.727L16.21,7.2a.916.916,0,0,0-1.3,1.3l.727.727-.727.727a.916.916,0,1,0,1.3,1.3l.727-.727.727.727a.916.916,0,1,0,1.3-1.3l-.727-.727.727-.727a.916.916,0,0,0,0-1.3ZM7.086,7.2a.916.916,0,0,0-1.3,0l-.727.727L4.337,7.2a.916.916,0,0,0-1.3,1.3l.727.727-.727.727a.916.916,0,1,0,1.3,1.3l.727-.727.727.727a.916.916,0,0,0,1.3-1.3L6.36,9.22l.727-.727a.916.916,0,0,0,0-1.3ZM22,5.583v7.333A4.588,4.588,0,0,1,17.417,17.5h-5.5v1.833h3.667a.917.917,0,1,1,0,1.833H6.416a.917.917,0,1,1,0-1.833h3.667V17.5h-5.5A4.588,4.588,0,0,1,0,12.916V5.583A4.588,4.588,0,0,1,4.583,1H17.416A4.588,4.588,0,0,1,22,5.583Zm-1.833,0a2.753,2.753,0,0,0-2.75-2.75H4.583a2.753,2.753,0,0,0-2.75,2.75v7.333a2.753,2.753,0,0,0,2.75,2.75H17.416a2.753,2.753,0,0,0,2.75-2.75V5.583Z" transform="translate(0 -1)" fill="#7e84a1"/>
</svg>
