<svg xmlns="http://www.w3.org/2000/svg" width="22" height="22.001" viewBox="0 0 22 22.001">
  <path id="Proposal_Bitly_Config" data-name="Proposal Bitly Config" d="M7.183,14.825a5.939,5.939,0,0,1-.588-.686.917.917,0,0,1,1.482-1.08,3.818,3.818,0,0,0,.4.468,3.9,3.9,0,0,0,5.51,0l5.042-5.042A3.9,3.9,0,1,0,13.52,2.974l-.97.97a.917.917,0,0,1-1.3-1.3l.97-.97a5.73,5.73,0,0,1,8.1,8.1l-5.042,5.042a5.728,5.728,0,0,1-8.1,0ZM5.733,22a5.688,5.688,0,0,0,4.051-1.679l.97-.97a.917.917,0,0,0-1.3-1.3l-.971.97a3.9,3.9,0,1,1-5.51-5.51L8.019,8.476a3.9,3.9,0,0,1,5.51,0,4.07,4.07,0,0,1,.4.468.917.917,0,0,0,1.483-1.078A5.73,5.73,0,0,0,6.723,7.18L1.682,12.222A5.73,5.73,0,0,0,5.733,22Z" transform="translate(-0.003 -0.002)" fill="#7e84a2"/>
</svg>
