<svg xmlns="http://www.w3.org/2000/svg" width="18.376" height="22.051" viewBox="0 0 18.376 22.051">
  <path id="Revalidation_list" data-name="Revalidation list" d="M18.492,5.086l-3.2-3.2A6.389,6.389,0,0,0,10.742,0H6.594A4.6,4.6,0,0,0,2,4.594V17.457a4.6,4.6,0,0,0,4.594,4.594h9.188a4.6,4.6,0,0,0,4.594-4.594V9.633a6.389,6.389,0,0,0-1.884-4.547Zm-1.3,1.3a4.611,4.611,0,0,1,.718.965H13.944a.919.919,0,0,1-.919-.919V2.465a4.61,4.61,0,0,1,.965.718Zm1.345,11.071a2.756,2.756,0,0,1-2.756,2.756H6.594a2.756,2.756,0,0,1-2.756-2.756V4.594A2.756,2.756,0,0,1,6.594,1.838h4.148c.152,0,.3.029.446.043V6.431a2.756,2.756,0,0,0,2.756,2.756h4.551c.014.149.043.294.043.446Zm-3.01-5.227a.919.919,0,0,1-.032,1.3l-3.3,3.137a2.756,2.756,0,0,1-3.883-.016L6.9,15.387a.92.92,0,1,1,1.224-1.373l1.456,1.3a.919.919,0,0,0,1.338.037L14.226,12.2a.919.919,0,0,1,1.3.032Z" transform="translate(-2)" fill="#7e84a3"/>
</svg>
