<svg xmlns="http://www.w3.org/2000/svg" width="21.998" height="21.997" viewBox="0 0 21.998 21.997">
  <g id="Synced_producer" data-name="Synced producer" transform="translate(-7243 -17426)">
    <path id="Path_22473" data-name="Path 22473" d="M1.829,10.165A.916.916,0,0,1,.917,11c-.027,0-.055,0-.083,0A.917.917,0,0,1,0,10,11.012,11.012,0,0,1,18.331,2.823V.917a.917.917,0,0,1,1.833,0V4.583a1.835,1.835,0,0,1-1.833,1.833H14.665a.917.917,0,0,1,0-1.833h2.862a9.184,9.184,0,0,0-15.7,5.582ZM21.994,12A11.012,11.012,0,0,1,3.666,19.175v1.906a.917.917,0,1,1-1.833,0V17.415a1.835,1.835,0,0,1,1.833-1.833H7.333a.917.917,0,1,1,0,1.833H4.47a9.184,9.184,0,0,0,15.7-5.582A.917.917,0,0,1,21.994,12Z" transform="translate(7243 17426)" fill="#7e84a2"/>
    <path id="rupiah-sign_9795453" d="M19.208,13H18.139A2.145,2.145,0,0,0,16,15.139V20.13a.713.713,0,1,0,1.426,0V17.991h1.782a2.5,2.5,0,0,0,0-4.991Zm0,3.565H17.426V15.139a.715.715,0,0,1,.713-.713h1.069a1.069,1.069,0,0,1,0,2.139Z" transform="translate(7235.867 17420.129)" fill="#7e84a2"/>
  </g>
</svg>
