<svg xmlns="http://www.w3.org/2000/svg" width="19.948" height="21.762" viewBox="0 0 19.948 21.762">
  <path id="Data_Entry_User_Management" data-name="Data Entry User  Management" d="M18.089,5.02,14.929,1.859A6.309,6.309,0,0,0,10.441,0H6.347A4.539,4.539,0,0,0,1.813,4.534v5.44a.907.907,0,0,0,1.813,0V4.534a2.724,2.724,0,0,1,2.72-2.72h4.094c.148,0,.295.007.44.021V6.347a2.724,2.724,0,0,0,2.72,2.72h4.513c.014.145.021.292.021.44v7.721a2.724,2.724,0,0,1-2.72,2.72H6.347a2.724,2.724,0,0,1-2.72-2.72.907.907,0,0,0-1.813,0,4.539,4.539,0,0,0,4.534,4.534h9.067a4.539,4.539,0,0,0,4.534-4.534V9.507a6.305,6.305,0,0,0-1.86-4.488ZM13.6,7.254a.908.908,0,0,1-.907-.907V2.411a4.544,4.544,0,0,1,.953.73L16.806,6.3a4.515,4.515,0,0,1,.73.952H13.6ZM9.428,14.508H.907a.907.907,0,0,1,0-1.813H9.428L8.256,11.522A.907.907,0,1,1,9.538,10.24L11,11.7a2.688,2.688,0,0,1,0,3.8L9.538,16.963a.907.907,0,0,1-1.282-1.282l1.172-1.172Z" fill="#7e84a3"/>
</svg>
