<svg xmlns="http://www.w3.org/2000/svg" width="16.499" height="22" viewBox="0 0 16.499 22">
  <path id="Client_User_Management" data-name="Client User Management" d="M11.25,11a5.5,5.5,0,1,0-5.5-5.5A5.505,5.505,0,0,0,11.25,11Zm0-9.166A3.667,3.667,0,1,1,7.583,5.5,3.67,3.67,0,0,1,11.25,1.833ZM19.5,21.082a.917.917,0,0,1-1.833,0,6.421,6.421,0,0,0-4.225-6.022l-1.391,2.086,1,3.657a1.019,1.019,0,0,1-1.1,1.2h-1.4a1.02,1.02,0,0,1-1.1-1.2l1-3.657L9.058,15.06a6.421,6.421,0,0,0-4.225,6.023.917.917,0,1,1-1.833,0,8.25,8.25,0,1,1,16.5,0Z" transform="translate(-3)" fill="#7e84a3"/>
</svg>
